<mxfile host="Electron" modified="2023-08-04T07:06:58.853Z" agent="Mozilla/5.0 (Macintosh; Intel Mac OS X 10_15_7) AppleWebKit/537.36 (KHTML, like Gecko) draw.io/21.6.1 Chrome/112.0.5615.204 Electron/24.6.1 Safari/537.36" etag="ahdWFoczLdofKxs6vjyN" version="21.6.1" type="device">
  <diagram name="第 1 页" id="sCdayKnefmSAgAHjNkQ6">
    <mxGraphModel dx="1114" dy="809" grid="1" gridSize="10" guides="1" tooltips="1" connect="1" arrows="1" fold="1" page="1" pageScale="1" pageWidth="1654" pageHeight="1169" math="0" shadow="0">
      <root>
        <mxCell id="0" />
        <mxCell id="1" parent="0" />
        <mxCell id="r435q-MBwhVWBDjpszqn-2" value="" style="shape=image;verticalLabelPosition=bottom;labelBackgroundColor=default;verticalAlign=top;aspect=fixed;imageAspect=0;image=data:image/png,iVBORw0KGgoAAAANSUhEUgAAAEwAAABMCAYAAADHl1ErAAAAAXNSR0IArs4c6QAAAIRlWElmTU0AKgAAAAgABQESAAMAAAABAAEAAAEaAAUAAAABAAAASgEbAAUAAAABAAAAUgEoAAMAAAABAAIAAIdpAAQAAAABAAAAWgAAAAAAAABIAAAAAQAAAEgAAAABAAOgAQADAAAAAQABAACgAgAEAAAAAQAAAEygAwAEAAAAAQAAAEwAAAAA5YOq4wAAAAlwSFlzAAALEwAACxMBAJqcGAAAEGhJREFUeAHtXAtwVcUZ3j3n5ibyzPvGF48RFEXUFpypiq3aakfbji+wii/QMdS2gpikilhBaVGHRESsVSwCtaVW8NHpWKc6o04rMhZwpCqiqIClkpuEJAV53dxztt9/7j337u7Z+wqJiuYM5Pz7///++++378e5jPU9fQj0IdCHwKGLAP+yuF5+085BbtgqK+ZioGBiIPnFGd99QPDdVsztaF9UsevL4OsXAhjAOSpUYp0DQM7gQowSnB8HRyLZABGMRaH7PnQ3AdDV8f3uywBxe7Y4vSH73AArr9t5QhGzr2YWuxSJjuyJzADEzcxlT3cx54n2poqNPWEzl43eBeysV0LVp54yyRJ8GtrX2FzOHJRcsPUuFw+2rH1rBXv17PhB2coSuXcAI6DGnXw9mtytnPPhWdLvcZEQYgua7H0t6zYs6Q3gehywqrr28ZbFHwZYYwpGQ7ADqInFSjwTT1EwBwDa264rftraVP6aWaN73B4DLFLf3J/x4geZ4FM40CrUHWTwUybEQ5xb8+S4Qri3M85/DpNHyPx8aAGjjIulTByYFm2s2ZNPnFw6Vi6FfOSRGe1jOC9Zj0xdlwksNJUd8P9XyMKmgE3UIh53Lkbz3aHLPJ5wLkG8A7qMbJFNsh2QgUG+eD6xknXko0mnUN5BAxapb7+c2/wNJHycMXEhtqGka6MH2oaj2n2EujdK18No97PmBZX/0vl+ONpY+Qbp+OHUG7a4YB+TbeGyqaih21IymSA9+Ei+yuzu0AcFWKS+Yxpj1gqU42HBxMVewdyZzW2do6KNpY8NCpX0R3Nt0vVQO/4C+RKdr4dJh3R1PtJuGugeNiDaVLqY0vKaMBN7DXrw0VqR8DkgzZvRbcCq6ztmo7ksNDdB8U+XxU6Kzi+/ly0bvp+86WcPnIvaVa54Jlib6IpNVXhZAp4u4mgqZf0PGzDX4yGtaGP5PU6862TUtkBn7zVR+Ey+azbyDnYLMColi/M5plTQ/O5r3vrS2S3zIx/58oq6tlFoUgFgUANvalkYifp6ud6kS3F0Pdiurbi57Xif37qg+sPmbS+dhWZ6r9fx+4Lkm3yPNHQE7GhqxmDBgCX6Af6A0RoT27tc5zds5WWOLA/x0F0oXVvmoXmtRm14UublQ3txtNpDtouKQncp8eFDLO7+lnPxX4XvBwRf2J0+rSDAvNGQ8cfNzZA84UcVWdYaeUSqmbFzNAQTfT/pTaUeF84MmVcIHXfiM/Sag/AEAHCib6e6vv2kcJivIZ98nvz2mifyIvsqyzPReQNG8yweslaaO/i0efRrRzKbv15V13EtcYVt1QUA5uzJnU2Va9OxCqPaFlStQ4w/ybEoDSF4HfFq6jumILga/7PP3TBYcdt6yptDysay0HkD5k1KDVMHNK0Nun2ANsC2+DI4/jToK3U5i7v3BHgFMrjjzNNrGVYYk9A3PYtCRSvgA3STJl+9aQ5NuPN88gKMljs0g9dtwuH7ors+OhVtbLku88KcX4J3WJEJ9kJ0QfnbCq8bgeYFFe+i/v5NixpGrbpI4yWC8JF8JZ8DcuTNy2NAEGTkBgwLaW9tCE+U6Oh4o9tenMUWj+tqbiybDOfvVuQZAq4QizOICme7LD9bQsz1fISvns/BQYNTHhnymsuJnIAldx20ZYXY6zhdU+TRsHl+2WzhiAsxxGedJqCpoM/oeK66oeOa6unRrJuGJufR31RX13VcTU0Ps/eVJh2fhybY6bhsIsC60+eRz57v2uQW9WEM5TWll4FQa42uBMQj4075AJkcLouE686KNpUri2RfPrDu08r+Vr+HEVZGRl8uv5N9EM3X1mH4/wBrw6Hof7zBIqVHzZ0zLK/4sXiPhc6IwCCSUk4TAOv5Lte9sf3+iv+kuWkKI+rM4EJfbImue+vYbNtCWQGjWmAxvjydDCis12gJ4s/gFZkUQA3YglIbJrE+R1J8gho/NGuCk7eU1FSWbkIBKXouE9e2zC/7faa4WZukt1OqxURJz8sFVvktO4/+4sAih/mQ0roOBQgtG4zy4OVFE5jyLKtkBIz24L0mIGmjmu+IxlrVGifJfbKIWef6tPReifh/wP/PJN5BkbC1B816BWr9Kt1QMeMmHxQ1ygvlSWGi2Xt5V5jpQEbAvAOLtF6S4o+zRSOD+1KanuDsTI1Fs/tHoo1lV0d37Ys4rnsBHH0A/RFNXr3Fua5vDNOeGPbusVBYyIT7Q9iqxi7GlTgIoT5TedAnBnxQFCjg5QV50h5z3hNKmYdRnO5odpjrxJbpPFOYW+xUjR+LtnW87vEWH7G3lbEXQNN/RkN5xdgxIzDRHcIFn4CO+AaPn/wDYJe43F2F0e6T9t1bNtM0RpYT3dzeuaamqiwGMj3n41z3QY/mhSlPdig8SxEm8j5T4SUDxk6fzg3DJbY2uog30ZHmPPlJbFWX7IJhqfbmF7emoWMy+p+lqqNiCtJdpvKCoZr6znVyFyIYc909scGtD1fn7AKwInkTnf83ZKux/c7RpnNPKVNpdTpkTYcSFBzQZ9W6ihd24iV0KKvYRdw3jco9yMS2j5IG+SCKeWB315QkNv4DeTNhQHGVjPnGMMKd4dP+mzvsZZ/O9rYtZ2RA7rKNAV5PMwR/Tzdp2/YInZchHMibCQOKmwEwkdqMIyWaYMa63PVE53w4PyagI7CX39sPFx8GkhA8L8Biu9z1yUl0ygS2Poy10wgY5ifHpWImiI/zvgzC+eFaXCYssVXn9XQYzX6bbhMrlIAvug6FOxaX/w/VYqssQzPNDzC6RYOlR7UcGfQWLZwlyCt1oRt3MDD27iN4vEVPASAGfNF1pLCSR8KAsJDkHhmYVtCVI10J6PdLjGBBic7BNOBEjHQK27aLfoD4Oe87oFmMh6PKA3unY4nmKkxDAFOSIi1ZuCFG5+938OQricUuOTnNPdw5wjYv5kIHvV8lJ3Ko0jiyG4MzhHdk/wN9GPr3gbLC15k2YREA7OsMUD55DwCG+cfufCJ+HXRMWAQ6fbpTWqL1bOiM12Axm9d2MHRxSsTR8acfHKjewC2RZ6fPlV1PWktiIHgtbc1MCZeHsIZ9TJYi7jvIyv0yLxONq6C10P2WLCcs5DDRAcDoAi4rsTU9sS+f9RxFitR3fh8vBTBsCT/f1lSlbqNoKVAQIxq9FMAIrHzSrry59fCQVUTxpYe/09xYulRiZCSxbX4V1pOK3MNC4Rhm+jRBRS1R5zScD9PiZQmKNl1oWSF9XqerHHTYCtlVQSNBX4I6SY6WR8zhoqbJeqAPo+hofu8rhgUbXlbbPljhZQroG3Jkj2Gvvpcf7vJhwSREc5AX5HgTVORRlmBppGKQFBoBw7JAWciipvLwICvn1o5nU4jAulFYbITsTK/QnAXXsK5hfWlIPFxkjaU8yiL0aZvksE9nAEys9hWk9zkSnZF0XHuzLoQnJ+i8Hg9bwTQcbgcX5IaEhcW/q7MxBzNhYN6toI8GdAOciQt0nilsh/a/j/avLGUA2DdNuj3J09MgH/i+mLFZ6ema8mbCgOIp1VA2FGno/ABCZW/LicdG0t0rWc9E44gNwzkfLcliza0dg42nTbRFfcqYkbaNLWpuTcSURBklaVqRa4ua0ZFZVRl2HKQtaiE24gBX9kFyJ01WzWgZgS1qpVUA7M3R+aXHprXSVGBakRLhCwvUv9tSYRCWHZ6M1x0yz0Rj3rUWcyLZ2XCksux0HIm/zGo/7Vc1sOQ7uNR2HsDBnQ02BsVWbLJDPALQZvb1NjqPmsEjYgyFAfursUn3IrNir9Dt6Jry0tOgmt7PTxhbm3hl/5vMk6pEec/wZKxhdNQUtux35Xgo7R10ATfXyRHmYtejE/2dHJeOwlBy+8G7CCAMUGTdDuAereDPoUmFgewE2QxNlnHvVfVBViD6ps3FkeKqrfC1RhbFXGd0pk9xjJ0+RfYi4EhLNoSMHh4JV10r80w0biG+GOAjQ4h/Vc+BRSnwfsjsJB0skuA87iV6Z3soLzpYdIyXCSyylREwEtK3O/SWH8zRbqc+Q+bpNN1nwCizVed/bmFcZ+hsKtuWNT3kAcu1WbqOKc+yTlbA6EMnNMMtcgSU5tBI5eAZCk8K0DUBdPp/Rac/TGIbSawo8I9txp8nsUl5N0LLdUV8/rIMV6TmQPWPKP1NFEfXCYThI47OVtHFmIAsyYhUDL4FNXSILKe8eh93yUyNztiH+Xq4KzrV4tYjfjjxxnUnXO3WR8zqhs5LUQKPQcewa5uMKVgXdkKfRx/zDOcH/o5OO7UMS+yOZj+XJBD68ZLzUCCXoPB+BKt6Z59ICH8BbgtAmNrSVPZcigkiMTIWbaAmLfNd4f6kpbH8UZmn01lrGCnTV2EoVG0HlvfDtvNSNvEp2zeIEp0DY6sQzggW6SIDl0Xnl12MTDwhg+XbyfXe3XREG3ZBV2DKMAH30SZm00f/VI2Lcs+ixs9N6cFnz3cNLMqj9wVcStFM5ASM7krRV2GBpoApQfWQ781jteuKcMFtKUp7tjkJlYvpRK3K6X4IF+qm5hMbtfEOFOhy8jUy9Lxfw9fxcjzKG+Ux270wXz83YND0PqGjr8K0x7KsX0QGHbMWpThZE3lB+EFNge48pB/Ozpevh6cFhVFkAxk9X4sVQxV+RuMlgpxfQ76i1t0akCNv+X4mmBdgXgL4hA7vwFID04STdQfQ7D5D45tCTQ8lt0KXY3CeGeQVyrFwg1BdqVBaaKqXOq6YnPBBtWnylQYS+jxQ1cwcyhswmlGLuDsRJbgvsznAhO8e8f8Mf9MP05CmQHNm7Ap8TpPX7RpTWpUzWseBf4UsozQoLeK1NpUtJx/IF1knQCMvwnEvo7wFZBkYeQNG8em6OJy4zgBA0rzYHouJ0zDS/NtPj46pUBNoMEg9VDOKuJ3X1nEqkkSE7NACvXZBvFI+EiMfyBcU4XYpaoqkPKDjmlLoFfiCAKPU4BTNmW5OpSwRWKYcGQ5ZN8qjJ4m7uuKz4aAjqdIicTz6ocsVXh6ByC07f2zotJ14PD5HjT7HIl/IJ5WfDHExPXp/xZ+NsizMggEjW7hJ+CBNJnW7VOpYdN9WM+zcV2iu48t3PlD5HiZ8gUMUzqxFdI3c18v1Jl1u2Q/perD9KKXh86sbosfUNEx/lXwx1ERGvqN/XeTrF/LuFmCUQEtj2V3oWKebmyc/0w4VbUANmukvo/bs++yX6ODaFec43X0oDgCp6CgB6HpxJCZswvadHgfLnUhD+20WC6NL4IErm14zZGIa+S5ZKIjsNmCUCtU0rDgnmQcCWhhb8+hqd6Sus3a3tY9GznrdO4xcF9Luhs7Xw4kdEH6hzseqoY5sQ34DpYVae48+g/fi0GDlOld0t2b56eZcGvmK2d7eZ4H4KgylPyqTHmrjDsiX0D3WgB5d9nXi32YhG1vZwaURizsbmR36B+Kp+2a0tuS4QS0YtpOyXG0iPRoNe+Abpx4BjEBK3G396v8MQ48B5tesvh/68JEo5I19+r6fkikEMF+XgOv7sSIfjcLefT+HVRheijZ9OJH6wTUmjqdLyJhgZp3AYg7VQlcY6FQeq5qv/g+uKYgZAnS/4VD4ST+D632sPgT6EOhD4JBB4P9rGLTYl/sWsAAAAABJRU5ErkJggg==;" vertex="1" parent="1">
          <mxGeometry x="60" y="181.5" width="76" height="76" as="geometry" />
        </mxCell>
        <mxCell id="r435q-MBwhVWBDjpszqn-3" value="" style="shape=image;verticalLabelPosition=bottom;labelBackgroundColor=default;verticalAlign=top;aspect=fixed;imageAspect=0;image=data:image/png,iVBORw0KGgoAAAANSUhEUgAAAHwAAAA0CAYAAABIFVy/AAAAAXNSR0IArs4c6QAAAIRlWElmTU0AKgAAAAgABQESAAMAAAABAAEAAAEaAAUAAAABAAAASgEbAAUAAAABAAAAUgEoAAMAAAABAAIAAIdpAAQAAAABAAAAWgAAAAAAAABIAAAAAQAAAEgAAAABAAOgAQADAAAAAQABAACgAgAEAAAAAQAAAHygAwAEAAAAAQAAADQAAAAAFdOqagAAAAlwSFlzAAALEwAACxMBAJqcGAAAK4NJREFUeAHtfAdgFNXa9jPbW7LZ9N57AgFC6F26CIJSRBFERQFRURRBwYAFFXujqKDY6CC9KTXUBBLSSe+76bvZ3uZ/JyFcRbx6v2v7/s+T7O7smTPnnDnP298zy+Cf8rdeAZbdykd1tQjFleLyhhqJrg1Kp5XvZxW6dxc4Lf5mVhQp5DmTBDynBwOG5fH5YPmiNgdfpraJPdpkbOv7DA+FHkJBhf8dqUbmb323/0cnx5ZtlKDidHd9i6lnfp21f0mNLqCkxqjSGFhPA+Qqm0gp4rt7wSFXgpXIYRFKYBWK4RQKwRPwIOExEDMspFYTwloqMbKrR5qvm/he/9sWVfwD+N+EqNitk/ktTttIixVzy9Tm284Vt8mOF+hRaVGC8QlHRO8U+ERHQyB3w/7DtYiMdsdtQwJgpQscTgeMTie0dgeabHZYHXYIWBYkGTBTfxH94wNmeA598ivuVgV/k/v9PzmN1n1zVRKLZmBti2XcrozqYQX1bMTRciEa5OEITZ6AqLHdIKxlUFKug3ugJ4akBKKhXosciRr+PBYhQgZtdh5aCPAWux2tFgcsBDiPddJ6OiHw8sSOHAHkwpovjKdeNskGvbDjHw7/C0gtNXWr6OmErUubtfo5W9M0Ht9e1IlkXYbBEjoAVToZIj1dMWNiN/h4SHFhTx4aS+rhG6TEoLvjaLYsbBY7TMTRZUYrctvMqDNZYbU5wCeuJokOsZD7ZCFkqI7j9hM/YEqQuXFIkqLbnwr4wozagXq+c7HJoq9z4WHvmpTYPX/Bev9lQ17c/VGQr+3qTK26dNHJfJ3ynZNmuPQYgdtnP4KYmEhc2JsJc6kaHgTawAmJ8Iv0gIMA1RTWwyfGEw4xgxqDDVdaTMiil9rMiW4n5AIWchHgQi+VELATUeisNjAOa7sIF/B5CDx9GA+lSHb+aSL93qIm16Nq3WfTfHxCpgW6PfxOjWbT2GP5vQ4Mj7v2lyHwJw7cvHXy9Ib6I2+sO1IUsLvSBcXSQfDrk4z+/btgQGQIXHhWBPcLgMZuhZu7FBGR7hCLeWDFUtjlATihNuB8qQHlOhv0DgckhJyvTIBQGQ9eZKCVFzWia7QSrTwHqkx22G02CETUiMcDI+CjVSCHzWFJ+lMAv5SVFWM01t9xj9mg+rzaIDIwcV+ct0sxRWkbewD4/xrwoq/GuLqxwnXnchumPfltLYInPYTeUyfB+0QxYqV8BBZr4DcoEF4ecojc3NEt3hMMcaiJ9HF2swU7qnQ4rTGgzewAh59SykNPFynipAz8iLPJ+kZFnQ7H8lrAeAhhpPMs6XQRvdjMbLD19YDNiu6+xP1S2YI/BfCUpKRr2dnX9idLpLFnjYYHP6ouQTzPeekBhWDf4j+Ry/7soczfTR6fVdz01hvHayMPGhIx7d0P0adnAoz5asQQ2CFSAbykQgS68OFK4prHMqgw2PF9nRF7K/XIaDLBBge8JXwk+UiRoBAgzkUAXz6QfiAf55rJ7eobAJ6HGBHD/WFgyFCjF0uiXHx4D8b7WSwRie7XxAJela+v8oJK5nLsvwb8bNVZKQL7oh/DmP7NgrJdukTnr2PZubFX6z42wynyMJnyvJMjdf/mmv/Vp/Tb71q15UT1wtT9OnFr/AMI7ZIIZ4ERAd2s8O7uBSs/FkxFK3yS/eHmLUel3olPiluxiyzyeiOJY7LAA0gpdyelnEyABhPXB9AnS+K8hfR6TqsFeTorWuoN7UShoPZe9GowWsDT6xHAs2BMb69v5AEpc2G9yCL+aRvDMERSN5XU1FSeZfwjHq92923kGnCnWZZl5l9qDpRYmwM0AugGBUeWP+LPGF8vKHApNCmOesLcLBNZ7kxNSLDe1N3/ua/1W+cp2nQVn2xJ00z7siwQQx5dicLzGiSS5RzF42PEQz3gH6aEgk9xMVqdcqMDXxS1YVOxDg1mK4ldPkIJ6N4qMXrRK5g4v+FgHtpIbIP0unf/EKhNZmRWtyJb0wa+lwThcj5UJN4zW1tISgBCMtIU+3bjhWGS/RF3vjruxyD8hMNnHS+TNHi7vhfr4qh8/HJh+eSt7Oatk+GcfUXzSp1dO1rEd6STAWncU57fY2Vm09wAL/eqb7Lzwtx4Ap+TgxKsW4vavKZEuTT8eID/S8d1B58L1Vbn7ly+uay7qecsLFj0COTkLqky1AglEILIlPYmEF0I7LI2B9YT0LuJo9XkZrmRFTY8RIk+PnIkuQoRJiGdS1Z3c3ETSjR6lNHCp2fXoXewHK10fTHxosxPgUFeUhL6NvxQrQafXDU+jcPQp4iLtgn5hpvX/yeAW+3Ng3MNwjn9JKoDLNM2Naxtw56FWZNmpRmMS2Z6BrUM9hAeHOAtfH5tcXnGUa1227K7Puh678bBIY2KIarnLlee2qevr5hxrkD/Zd/YuTcPxH3fcLEmqEBgmyKE89LL3cNOd0qQW7W9Vd2c9BJlHezCvT1jGm91/q+sK9uYKmkoPX/o0fVFMeVh9+Gu3pPhRwaUt6cQcTOS4ChuQUh3bzgVYryb34aP8pvRbHJAKRdioL8LhnlKEaozwudqFUIpiqaIdSfXyoFWsRBn7TZkWu1oIbS87U5UGpzwEvEx0k+OlkY9DhTWgO/HJ7+bwKY/p7qedD6PVIDw+5vXhOjmXyVarixp1mkqVzTrx16xChperwo3Fehbl7TZATPrVFH4rmd6g21otNT1nFwpi3vlw8fHMGFDzbdll20qYrwHTnULTw9zUY0bfKJg2b967Th6/HxV1DGRMNdPoQjSOgwjH8oofvDmNj/+nl6r8/yiutqjs673yZKxKpFLXopYMH5+et5DnfV/h082d7J7U+uZtCXbGmNKYx6BIqAvSg5coYVvhruEQWiMCkHjorDPIcQdx2qwPEND68miFwH2SIQSzya4Y6zDjJBjBXAp1ODajhxknatCBblgtXSDHgPD4BbjhYhegaixsejiKsa9YSp4kjH3w5VSmPdsR+jhrbAXF8NhMMLtWg76hQnK0dvti5vX5yccntovsnhDdtOAk6zTO8zhLMFjQ3xs10r86vT1OMQjd97hMTJC5T6oRseIz2v18FZG9Ge1W9NezjsSx+rL4CVxf9PL7sP3Ynz9bx6ogWcfcF5vdekudJ/ZxS24ebemmhv70852nzU0uBytaY3c3C3qysjDWfJ3altOJitEp3ofOL94zJje+k0/XL3jglHgP07l93y1sa7mx9d29rHxfF5Ujty1T1Jt0877RyX9TJx1tvs9Pwk35vybzR/NXlvSY/Dyj+Fq80FtWimCZRK4ky6Wkug9XmPE+/laXCNDi0ec2dVbihFeCvQhcRzvJoC/goe6kw1oJu4sI3F8jbi5OaMGXciYq2oxool0v9BP2R4560vuWw+VFIZWI8469GjN+wGr7uDDy8tbfyw7S1FVlY0xcaK6GJVyGMM8brn5Xn8COHdydhePKvrgXkgFWu88W1oLu9H/qqEFFoigahNIWm1tCHOexRPM3OlVuRmLB5cbUVTDxwkDI4j0tuDdLi6Pbr3UO+g0M3XJfsVDYbqmsvM8HlOu09biTZvTzUXh4RbM8rdzY3Bl3snsoOM1jtM9pdKvVZcKllAEbkrCkfSyXL1S0ctbYEplGOfYk1dPn9Fq7s0zOwNjGcdG7rrU3FzRi/Hx7dbnirO5tx1x8Ts2Vm5/6aJK8C2dHs+1+SMLmz5HmPdh+YcrdtZMC5q1ElG9+8ADZuj8JAhyl8OqkmBFZhP2VOvBI3EbQD5zP085hnjKkECGVoi7EGJCgLN0G7wVSLtYjUIS2blkvPkGukDUbEA1RdZ0DhY+FIQZ4K1EoocEaVuysZ2MNr2wGXe7NiEkKHZN4Oil89i0xRPsdklPgVK4lun2AscUPys/A/zmFl1dPN7INmvfLWmqxVW7Esmys1ijXIWGQ+l4/Ht50DmPQWgJToIlU0YxPT6QpUNA2mXc73/u9mULPxtayg7PP8oXm7/pGTrg/kvVj142aid6WVtq+ypdP590TT3OW2r7/ky9Y3yawxHiAe+pV82tfpuy1PIZXX3uoLmQmmec5CWIj2g033nn1BVpTfWCl4MVGYtOFXnx+arXX8ouOk/t1usEgpTv1JVgPULm1luFKrpGRNf+YV5Devo6YVPx0a9f+a528kXVeOiLJPA8W4BJg0Lh19UbxzRm7Dlfh3qzE24KEVJUMgwhru6uFII9UgyL1oJSfwVUoyLRbHGiOUiF1q6+yKcwqiTIBaoIDxTorRCRhEhylaCXjwIxRCgG0vNn1Dq0gQde/lV0GSpssvA9lnC4Mf1f/44+uNcvll8FfEWi60fK4oSY7Yzkoa72r4SreKsxf4krdvHGwmPBTESEhCAzvRmWIoroCClLY3OiJiUFr5dHQL3kS9lDb7yS/I5p5b799fW+R2r1hpzBCaO52TQezfgs1jt4Ck/TcM8Kr8RNp2qyHv9Kq4seIOS9cn+Sr+H+jimz/nvTZU9crcsLEto3GfxEL+9K6G7dRefuu1A443uD7YFAh+B+ApfTVe/kns6ecaqpKjJZLFn5R4LNTc21vHT1ym8KJ2d5DcKAO6fg0qkiRBFQDWYb3i5oQV6zDRKyvGPIdx7u6YJeHjJEe4thSqtCXUkLdCIGlXXkh7uIIYtUob7NAlmUB/qGuaHBYkMLxcK9hIJ28d3D1xUhriKYKBHSyqcIWowLeDkUtWPKERsYsiNseF0bN6ffUn4VcFo4Mtkwz1kyMubckbRhvTbFoWzYLHIfkhFMaviawAEzUS3oHxZyArk8rMIC55Q7sP1jNe47ehhZdze/m5y/Pn2arzJ/8rmcB7f1TRw6XK5YflzbcrqXzOOH2FjGSKAlHK0yeo8MlnN2yo2y3cPKLmxpKisQSnnKmlxH54khCt/PP2yoirHxhJdoju26ivpINBjgo1Aw6s52f8Rn3Z75CUdPnn3isDUayc8sgA/fjn4PdkGxgcXGnEZobYAPAZTsJsNg4sxEAtuDgiJCWptSJ4szehM05FoV6MzorTfDo9lIAROywinFaSDxTeFx4mopunnStXQ9v0CD3MskYSlO3hIvR3MgReUuXcbUFIU1zFfxOcOkcvnQ31Q43/+WRa1m5b6+jIEtWiCGePd3m79sGfXw/t6IWrUSD+UIWGuRkVmiI7CFhMFoMTmMRqCEgm1+1J0PiXaK6fD0Bsw+8Cw+eUKeEcn+wJhV8h4JrbWbjwyKv4cbdPLWrfzEhIFPuvPN/AVXL72FKVNuAPrjSS04UCT+YEwkpX8obvgXFyIqpuCTcSXTPmsMEy98Gb7uLgiUCHGxxY4ynRM84soQcr0Gkw7vSXqZR/pbV96KmMGhsFMSQ0cx8n0Hr+F0YQOCIj2R2MMPjVRncDgJaAZBEhHi3CiM6iVHBPnsfBNlx77MQJbBjO9aDNC6U/pT3oDhxafw7Bjli/LRH6z8T5bkZ4Cvy2vwu8zyNvDseq3WKmr52uNu2e7tWfdP+bYP4t9c6Xy2Z8T9Ua+V3veADqNzm1uJs83AGIoSEKdDQHiQ0UGRACrE6Twhor94G1nPFsPUpSJkaWFj+JprA7PRzdcPtjam2NnDOdv+7PsOu8jt7KCQFLrIyV6c5Ws3aeIF/gvSmKix7ZzL9WY+Nn24mNc2SFvP/8Jt2u4Srs5y9KE4kbUpECr3DKbfZ81c3S+VrSzLnwzaG1Z9jpoE0n9fx/9E7Ddvm/TK/LWFS491uw+qwf0RIGBQpSd6J1qXUlw8jvTtQAI7kjhUSoba1vfTSUfb4cXtUBkfCw3pbiNZ49xmBS1xeysBKqGMViCJ/1i6Jo70fAQZd56UCWMp9dlCUmDPF+nYV69DGRlwcqUeUTVHsWSQeGf8zE/v+qX7/aX6GyJ9Q3FT0OxIj6rPazWrRJ6Bo590D36ri3Ve9yvpmcPmHO6LsHdXOJ+KDlo6UORd+dYo4ZDcbzIJHuLqWOJmctlAMd4OoDuH4mjJiVqXEDQ0ZSOoZuiINS7lt1mCLH3yzzV7mc0sL8C7tu2Q/1lzqyD4vP+Vd1yZ7gtbrab6WfaW/FUCPHuOTRv7FtP/wA6uR7ElJ/5EhnZZqDtvHnu07xlIeq0yNpV3qy7NXhvuK81nD44+WKqavzbNa5xlQuVrIldbaRfYGyNg04fAaffDtr5utOFLSXuCOibI8Gzsjr414LkUGMUxO+VjP7jSceKX36v2P9blqz3nHz8qiAd/YF8YLWYU6vikyfiQEEBchKw/bVrgYuAWWg89iehiOQ/F5I71JRF/tckADSVHdMQUNloeVwI6mqJv0QR0NBl1EXStO7lkbceKQeYnxH0D0cInxunthfp0C4TVNVBmHsNj41Q1YYHeT/3yTH/5TDuHT04rnpXk6T5VYG05tKuurc9Fu2XaUyF8vGIbjC4PhKB0wUo83+zP9m5lSw+NjA3fBSNT3VpObKcl05ADmiZ1q8Iw4B89hQPxGzGwP4MX3+Xh2yw/NHuFwiESQdZSjyhbJRbebsDEoS4mq9vIEWJdznuzVpUnO2lRVt1LlB8cXKz2nPluUOvekROXXx1/utEd8xI1eGqMGG4qD/u0dxsF+fV8LBtmxPjevmDkPjDWlUFDQYsitRWFGidKm1ioDQJorTxYWQHt7WQhIeMn0MWGwRHkv3V3obxjxJYtqgOzH7mDISr+eTl06Ky7d/26K3M/uBxcOvMZQK6g3aEy0jJ8SEmkdyPQEunVqDHh+9M1GDsyAgKZkEBn0UCRKzv5Xy3E1SytiaeQj1i5BDGuBDL51GFKCbyIYIS0XaX888toajCgkvLZ1QohvEcHYr+6ESWZVxB44gDenB5saXVJfr7H6Flv/XyWv17TDvidP2RMaXH1/VBh0qeOcffI+LBevX21cl7g5meysKXv85gQ1B8Dcyz40CJAMWeJj6MgbxtJUJY4m8OabqLdWLt5PKoXnb+EheqPcVIdgPM9pwE9EgEKSrQX0ltopHDDhQyMKNuLNQ9YrX7Eh70+DhXkDJoMt7QTuIu9iBl9WHQNE1pHv8UTXVy2HqA8r/+lY3QuA+k1Qpx7dh14GelIzDmKocjH98ZwaJNug8DNCzIPb9rn6QG5qxIyAklChEZ7O8GjvV82nQ7a0iK0pe3GE/5nMXVY1IkVU4+PSO0wVG/cjfngpPFbTmrW7cto89VKohETHQEDJTCuVNWhxN0HMRMnIUwug4x09LUiLbLPq5E0PBQ8pRgGO0NERnFtEuPBUhHiKZcdq6QwKr0C6CUjkS4itSAg0E10fGb9JRLdJlwlX7yQdqF6dnGi+sAhjOeVY/pAz+My/7jFwcMXXboxuf/woB3w1FSWZ4o/5vL65OFtnGHUUnjPndlnvtt1++6xiHthKe6rE+K5rTUkwgigIOLoYWSSG0l3c0ALSCtYyd0l8XQDdK6eJks5Pric/B6qfXtQtTQVrEzaIfp/MklqS8YKr6YOvb5ZjfUPtmHwiVFouWsytaJ6Gsf9/XewIrEAb1Z1RdmS1wFabPCJIyrK4f3VWtS8+jH4xBESgRiuWz+HTOkG+YR7ICVQpRSlkhIXiiipIKJPMXdM8xPyBFTXEX8m+HHgiek4MibLGBCdMIiZuD+jc4r6vWNGvrmz7vDFxkh89MHbCPD3w9EfjqO2tg49uiXh0sVLWLnpW3g9R/dHks7G8mgXKXmnxAgk34ibRYhRSJBA4HJ63Y+OVSQROKmgJcOt5FARhWpYBI+NgpSCLVlXa7D+UBlaaeeLqO0q/NUZePEOT4T7u7/bFOa6OCEh9b+KLbTr8NTUdutXm5pfHZ16hq2TOXyWbzzqCuPdkzFSKkNmCGVk+pKkayau5nS2ifQggcmrqELUvi9gbzWgJHU1GJMJfANFlTT1kFWUwrsqF7biWlQ/+SxYuZwMOvJXflZoZch4cYYGI7PXRDy8+nPYJ5FRRSFGbsmcEil87M0I92Kh5cV2EBW151QJn3XA7ulN4BNx0ZwYii0LdDTH5L5k0dG6cIRH4pv76yBG+uS+ddZzLiR9F0okkAbFoEx9AQGBeXSDHYVNmxmx+3jpgcy2rti/5wvUqTVY/OKryMzMQnbWZRja9Fj09EKsmD4Zz3/0DnhzSK3SuBynB5EUS1DKCWyaPxlzKrK+7aS/9W0m4g0WeidtdDhbhgqjAY1knMnOlSCuny9yLJQXci1BWOYpDPE1Waff73vSyyvqJemQpac75/XffN4w2u44V/681anov8btWJm+ran7PsMYRFkp8pNuxBF/2hUZRmAFEBfbCGziZmHGFdyRtQZLH63Dg6vC4fXtl5AUFULQ1IgRSVrMnW7A5SwR5rtMg82LQLkl2D+aOkkJ85CBqDv0XUd77hRxMS5m4vagRuhsAhjDokiaXCca4lxJfjZsfkQcFJAg2qC0IAteUwNYH3/CkQiGuPlXC4FuoUW3Fl9Ez76ujDXwTgpivNF+WXmN7o1XtzXyN5HU4Mo32/Zg+MhRSOzSFbuJgLMuX8K69Z9g/bqPMYiILS3zPCL69keomI8AqQR15VpcsWnRm7JkpXVabNlZRHPiYcpdEeRYiHCNMlzHK61kSzKQaStw4a2diDVX4plkMeIm++dE+4rnCwZFn2OYR27FKe1z+k/fbgBeqmt+oI2Rhy7yqbFdOUsb2lWJUOYLsIs10BMNtHhS4nAHjUsLKWzRwn/LF3BEODHztSi0Ct0haKyHOSwcCI/E7oYm5L1XDIOW9kk/PvA6t/7K1Dhuk8hgjYyCw9WNxungPkFeHib252FPDj1d0SXoOuEQ4ZEqkRbRxoABtxER0rxIPDOtTWDEZB8oyAj7cSFiaKeIH9dxxzQETyxC/u7NmBdeCIlb5HFm8Bv57afKZrl9s6EgyjO0B2Kjw9HaqqUN/g4M7dcTVwtKcfnyFRRdKyD6syEtLQ1PP7sIh4n760jMN5oZZBER1Z7VgKXIY4U3CwPtT6slP5rbUrKtog48rYD6s0ChqIDw3BkSnPXOe4Z4WgYneR4XqcLflPZ8/vjN0/09vt8AfIS7atlug/GlJjZL7qgT+Dq93VASTBkysiwhJK7muIgDgcQhvaPpnvvwnRdxl7uSjDDSzSTGOhaVztJ/fZ0GrpcvgvWkDCcHyI8LJ1K50g5qx2H7O3GozcMddgWJf67QkxTuOjUSwnhIPeMOpysByV1DeHN9iqorYOW4mcQjK5JCUJwPZ3xX2qVJIp5covbCzZekh50kjMhF1VHXcQIiIozCvdvhfvAF3He/r+aC99zZwHXJqY/zK6277NGte9f21kKyScxmCzJzr+HylUxUlJfQ3kBSI3SW/HnExcdCbKQgC6k1XnEJgs/uQZyMsl3wRO5Wd/Ie5O0bE/jkqraezoS7sQXdhU3o5mbUp0yQn0yJjzokDfU8yASvLvnRJH/3wxuAv5sS9i1S2S33zz+TeiBQsAzperD+xNW0mO2LzIlIrtB628ni1XdJ6vjOGWucuL5ZZBMh6EaM+jnYXHvOqqFdle0GXyfoHBGYKXpBFi1LersdMCIAenIKlENANkvExQHJFRL1onriEpMRTjciKE6nE4cLKsvgiOsKAUdgXH/ci2yBknmTSGwK0G3D4Y62dBN8AjB357dgNj+DDfPkGpMicEif4dM1HQMApSaVQuEqc2kki5krcrLC5SSqX3wxFfWaOtpLRrkDYlc7EdaoEcPRqNPDQfMSkw7nDMdPUn0zvVwd6XVNdePrW6q9SXXDFkBGI8XQvcgV83HlZ/t5KTYJGcHXMkfXBmZQ6nUK7ZzBH/N5A/D27sl4Mz62bO+QwQXLIr/+AcXJ5EIpFe1WdDtbETjc9hmWrF8YaJO71QBhWyvMwaFgOWv9x4Vb7E4i6awXCSHMyUPKwXXQGvnIfY4sbrLQO7iWB3F5GUkT6ofri+NQkhomT188u64AjQN6X29LnRFY4pJrcJKb5SSjsrOICnMgPPsD8Np6AoP8bSIQC4l9RzOFMZe9R82IMKjwxTJUnjwC112L8fkT/my1S99Hw+7+sKD9ZOdbU46r0czIzl4+1VmDRx+8H1fI/buWS3YCrYVcocBTTz6OIUMH45X3N4ANCIDx2AksHiuxJg3we4Lx/4K7+GGWTfVEgyEQDn+/emNMH2+lczPjOS7/RsfY+a/DP/joJpSIkj1fumSp67Jy29Iry2cuX4ECiio5iOME5HOrBJSUI/2sUtiQFNqK2kIz8phoWB577PpSXp8tgS2qq4U1gLiS9F57IQ7k5RZi3PG3se5FLcYt9SUAids7r6RjtxPHYEjqcZ0LuVMUtBg3CTsKEmCjDFy75U5GD8fNkmt5sPn4XSc02thD3C4oL4IzZQBFdClOwEkR6tNWSZsRVnwE1+T+7Ts+BXJX5Hy9EcEnXsMn90krrnlMfqL7+Od+llLUagrn7qp04VeQG7V/93e4/c4JcHV1xecb1qOqqpp8ZhN8vTzAJ4LcW6LDt598BPcFiyDa/CkmPuxXdB3s9lun5AaZ3uBeFJ7EwfbKv+iNW/GfFbFf9ovdUmKXZx2qbclbtddyedE32P/gdgRoyEiK7Yo4cQX6hKopGuSNxgcfhrNT1HI90SJLSkvgQoYIKMjRWTjJ4H7sID3sxmDBG1IU9hpH8VJKuhCoXBGSiJRfzYQlIIiAvU4kJCEcCleY+vbjJP31QgdkT0jKi2EOiQDLEQ0RGL+lCXyy0J1RCdSu47ZYMz3Kc9t4yLqRdCCVw5DILSZxG3HiVWx5xFWjd02ZeCuw2bw5fhnXdHeVhfUEb8YcLF39HopJLztoriK6p7CIcETHJ6BK6I3N+TqsXfIkIidMh9Q1AD4yenJE5Uby/u9ZfsbhndNklFdeKi8v/zQiZdiWC4fKBy5eG4PMyY/CER+N3ZnR2K4jQ+6peAKVE7/XAaLF4NWoEbRpDQwx3ML/qBCnS81tONFtCozR8WD8vTp0NteERLg8M4O4VUj2geu/pEK7SUQEwYl3CpS0F8KbISCF9RpYwmNu1Ak1Ne2EYA+jR2o7VQmnLTjPgmJrnHjPW/MWJqg3Ydlsj9wGQcSdATM2F3d08NN3Y339gkN5FBsYFAknWf3ec1/Aw089h2h6XLf3baPBpwherc6EgvRLyD11EJ7JA6n/7ig+XgVDgxA6vS6aRP6vbsAg+mGg2Uk7wib9aQTyi4BXXP1YFeyTcnj3t9ou89b2h3rBwg7xSaLMHkv+MFc47uwEmyJZ/MoaBH3wBr58pQSPbnRr34DX0ZCaEifWzF/YvoDcdR18ff0sAaq9bSS0g4Z2cCzX78/K9TqOm9t0YCgeYAmneXABGvLJhdXlZMW7wUlinpMmNwq1Z4m7Ly9dgMX+FzHvnoCsS/Zho3vNWK2+0eamg6Ia/dSzDXLwlUR81Jdar8Si59fAlLULixY9AX8yFFur62FNigNz7yNwCwpHzzJSKV4uON2Wgm17f/B5KnzuJOp2801dt38lnS5AQclLZT+Y7zOZd3gaLs96Vd7j85du1fb3rrsl4PlVVwcHuU3c8u5qk8/iXcNhXTqPEKNF5PQxLWCnGG6fDOlTjhH5V/LQP20tNq6vtYbHuJQlf1UUc7WAdCrFnWEhaUCF45afXNte2/HGwSmtKIM5JLSd0zvaUS1xJkNuFYVUyE8nK51ku6C1ERbiMjtnoXMGHlnpgupKOGVkYHJGHGdUUj3H1br8PBg3voI1SeUY29/jq3OCxXP6zZhi+tHQPzksPbNyYPrJQ4GtLqFQkAHJULi0LL0STY1m9Js4GLLMArgOmAXxnrO4pj9J8XkxChrUGNMnHi8HeeLNWBXefeKEoGdS/kusZnY+47Mhq3MALpeO6vsHnfwm/bVjGaI+JS1+cAiV8BZoVm778O7gyY9tf7iz7R/1eUsdbhUeTifbaHdyigH+xKfMBZozWcZchqhdL3O6WUquE/mZDG2AF69eh8fVr+G7j7Sm8LiUCbAHzV620GpRrf8U0DRyPg1dR9dzFnj7dXQthTPbjzkCosJxpWrXTvBJXLePxQFJVjBTVAqv11+Fz1urwEs7196Pk/ZrBzvqEf7KUxB8/317P57GBrhZWuCorSHPQglbYyMqVr+Crl/Oxc4JagwbMfTFbYLls/pN+WWwuXnwePro/DIDn+fj0y6F+HSv08f3wPCpici2i8BUVsKhoue7BqXAv04NtrYSZrsR28oqoNUa0TOvFbwe8/HEB+bIgwdLjrOaqW+w+udGO2pfesKcP3Xz6g/LDn+816OP/6hUtCXMRMztU2k7kxSlGmZ60bFHSEf+saVjtW81xmSW3/zp3IsC01fdlj7N8g5di0RjbE8yqoLbrWQhRdaUhVnozuZg2dNt9p6D3IuaWu6e5BnW4d6w1bHrcq5UzHlguQ9KEoYS5xKn0xJyutetJAciClLUJ/aGPjkFTncV/dJBLXp+9goqPSKhvuve9pi88txp9FWn4b25IptMxGdXf6UT7WkIQZkqCm8GnMH8MXz7s2vbBJvsvdBL0YgXetXjoe0KOCiDFdhyDU8OZNnRfYJbyj3ueiBq3OI9t7rNm+vY/LvHzV2av/OrwMlCSUoSFDJvvJDYDT3pJ3O+vlqEr+dMB29RKiYPmQDz8f3Y+tX74M97GnYK494bGoXZpSZKfJDvn+CGj5YsRqxnJYb0lFGuicX3l0gShQ6D3m8YRo5NQsW5I7CdXXvtiSmCh+JvH57NMAtbb57P7/39lwGnkWZtZCWpY9bcF+K5Y0Jtcdlt1UUaaVMjRbVIuisVfPj4Ms2RiaqTZMVs3nYke8eUKVxy/F+Frek9T19XNjc7y5zYqqWhnAwtIAN/L1mLVCawl5S0ee25JMEWTQIajSKcmnGJMllCnLnqgKuEnn8L5KNHktcJkzD8AwMTbfHkXRxbX1Q38chFnV8QJVMG9++2Ho4GfvpFzYMn8pxYNEl1tbVVYKEEhW+Ar6qAkbjv3CZO3T3l9l7qf83q3x+xxWPGzH6ybPeO8GkiYc+ucJf5Ie6CAQNog6ImUI/8dx/GBcQhMPVthOll+H75M+B384R45FhSARI8FhuLWZG+ZKA6kLU1F3l6DdroPvbtyEfv8X3Re3gy6pvbcG7zGozwS9NNHiHtz0Ruyfn3s/r9zv5bwDuHSaUHDH1iZgZPHLpdIRFWxAmdjRaZhF/8zifeZQsXvmMhqUwkcOsyZ8464XtL8gMktjx6AJJh9eKkxkY2rmzFCmDj0hO9WH3myxatZuCekzaM7u9TLPCZNk2iPzoSQlWbjQk5uOd1dfmUbdvaCYnTgSc+XiHvn5B3j8BcusrQ1DbX5d7CbaZDUx+QmDM3tCDpefc7t77Krkum9FS4k5nScd2tZ3brWrbq7iELnyk49KlklFg8tD/cFd6IzedhVLQr6igU6nrxSQqvmrE/7kFyHCg+UKYH/+JayEZQ5HHoaIoM0iNAASHoI1Uic2c2eib6YfCEWBhoY6meMmhVZM98tnwxHhpaYxo2pEuyS+jLPwrA3HpOv2ftbwL89xzwVn2xpffFQJ+zzOwIPyHtvpMU/28rZcdnScKGfk5Kn/ZjHJw1ycyTVniNWpNx/PhxwdChQ8ly+88LWz2r2yfr8889eTpQIp91HzkAYtyf0AcDvcRQUzBpy7JZ+GgRMGOVFaW3Pw2nwR2jE0Oh3fIWLqjV4FHUjQkOoWyYJxQCCdzIkFTwRHDj0bamihJUb9+I2QOb6mc+FDqLUW7404MwfwvA22Eh7mWxjccwt965+luhS2dZoTQPTELC/+whhF0Hd4VGOTYWDHm6SswsfKbdSPX1CMBIjzCcP5wLpb0I6v2rMH2cDBuPK9Bwz+NQxnbHYKknDrxNIdIqstxFapBSAc/HF1ZKuMjMBkjJiEz21eOtxV6UK+g20yfy+U2/9Z5+z3Z/H8B/z7v6L/uy5Ux69pk3S1//gh0MwYhhlD9y0HPXUrSd0uGOO3vBj9+Ko2+9DKcmH220C9U59T4wfYbQBkQ3jIiIQJzCjrefXA2ruhpPzR+IzLM1OHo5D9ERFiSEGjH7bu/W8CDVBJfwj079l1P9jy//B/BfWLL0HaMOzXu1alRJwjDwR4zg7E0K9tBPapCbphC4wkYbQ+x+OrIZi8BczQfTVg8mLoE20w6m/eaJ5K5ZEEJxh6m3haHuRCnaimowalZXrFr0BYpzTmIGhVzm3BO1jO/z/pu/MIU/pJpJ3ZorSp3yzy833Ly6l3N2JjmKP9z68PLq6HLWB6JJ48FykT0u70+RQXutHXxfMfntLKw5FNtP5EF24SIkZ8/QQ37kgMZ3Az88FqqgUIT4BiKK/PoEyvV7t9C+crETn27cgDD/M5gxOXm5PPDFl24e/4/6/g+H/5uVZdkZ3ur0ps837VAPOHWuzaWURHaLewhsSsoD0DZjHvnePNpy7KSf1rK6etIPpfkjURWE3q2UQt3/NlKS6VmzVh7tXBXCxpPAxleCTxE8n9DuCHcG4MiZo5g7qbBozFjvfozreopQ/fHlH8B/ZY1zc1NF8ZL0kLomy9gGHTuDHt5MbqFn4212OyuT8R1C+l0NB8Wb6+rt2HrEiR8EvfF86rOwb3sRj81q/tpodVkrExjdbGahr93uDLWYjEmNTcyoq9cY4fnKRIhtNXhqmvHu6D5bd/zKVP45/VeswIZ9V8NZdqcHy+6VsWyROL2WldXrj/s2NS25W9tw76lP3+vqGHnPHPap+cvYssKht3S7cnOPKyyN85eUpt9d99yiCey+b6d881fcyz9j/g4rUFDx/htpp0azd941kb2aeRsF/3+5FBa+6Vl4ZcErpw5Mr/zlVv+c+duvwLG0ZbvefHsgm5M9/KPfMtmLpxffkU6/JvFb2v7T5m+4Arm5W0XnLtxRV1M+st/fbXq3TI/+3Sb5v20+ubnbHCFB/Jn+IfyMv9vc/x/Ybjnu4mmy/wAAAABJRU5ErkJggg==;" vertex="1" parent="1">
          <mxGeometry x="290" y="181.5" width="163.35" height="68.5" as="geometry" />
        </mxCell>
        <mxCell id="r435q-MBwhVWBDjpszqn-4" value="" style="shape=image;verticalLabelPosition=bottom;labelBackgroundColor=default;verticalAlign=top;aspect=fixed;imageAspect=0;image=data:image/png,iVBORw0KGgoAAAANSUhEUgAAAF0AAABdCAYAAADHcWrDAAAAAXNSR0IArs4c6QAAAIRlWElmTU0AKgAAAAgABQESAAMAAAABAAEAAAEaAAUAAAABAAAASgEbAAUAAAABAAAAUgEoAAMAAAABAAIAAIdpAAQAAAABAAAAWgAAAAAAAABIAAAAAQAAAEgAAAABAAOgAQADAAAAAQABAACgAgAEAAAAAQAAAF2gAwAEAAAAAQAAAF0AAAAAKPRG7wAAAAlwSFlzAAALEwAACxMBAJqcGAAAGpRJREFUeAHtXQmUVcWZvvtbumkIIhiXmRBBxWbpxS2JGTCKCN3gkmDGOSbHkRiC3TSoMThma3UmiRFjbLpZxCUxJ8c5MmoC3SzGGMQYI9KLQI8bEAwqq9DQb73rfH/dW+/d9/o1YXuvPWdeNffV9tdfVV/99ddy6xaCUDRFBIoIFBEoIlBEoIhAEYEiAkUEiggUESgiUERgIBAQByJTf54zn50p7+gxlomCUyI4gug4giaKsETHlgUpRrS2YGeWE8T4CyPKBK3t2LYtCGJIEsQYOCBYRBqyBUESBMekfxK4OU7I1PVdXXWrF7DIAfrJrMwAFKK6ZfpCOajeZSdMN3cqkYtX7tLwEvdHw9NzO8UFAWhRMSibkahx4dvzWt9PRRXYAUEYOFPZNPV0OaDUMcD9YHI3FY258cPDONjcz4tPftEL5HHk525qSRJ73VJCqricJxsIe0BBl1RtlqPbQVZxEUUhgOjhwHJESGX4w7gboEK9cComycxD8ezBD6elCOYWBSWgTKxecm0Dox2AH1+JC5t7eWO5FjpjVBLKNw1WNuDcz20qIi8xAcjDuc3i4YEayRlH8Z4RNXm//ebfz2p/rN3gYYWyB0bSoVrDZ4xuZfhxgEhi/VKZ7QciTKp9NKKDNIwJRXLIfAQ8kOL445Gh85wuTjhrKU9VSDtV1EJmeknz9afZirNbsG2VAU2lIKy4nSpMn4A0TXbJ/el9cVBAEHxE+sJ4XqKK+U7S/OLG+tbXU1kWwDEgkm4I+jOAIjfgHBxmZ4FFgBC4ZCiKJJ27CVVfHHfT3JIZIiUnpyGnbguWJt3H4gv445W6cDlWtNR8UQsFXnMSliuByJrUBpNGrxjMD3QcWfzEEWwfTLy4FAQ3STAzcLP5ueeFRRKOv2GCyWlYYAbolI9UoghWRP/OprpVy9Kp8+vitchvLj7uFy+/biMk7GIWxPS2HxQfkJIY3zTn9+FJjZMUYaKPwTE611+x3qxomdaoatqPBQMNmGogHwMvf0cT9hs9iZGb734x6ovNm7OgoFc01dRogwKtdgwLIZ4zMGcDJKpIwJBbVETBMIxvdda1PXGyNa9aMn2LbItjqWlZD6I88IcVb0rqJVkSTMu+r6NuZePJ5ncs6Qun0yGxsiYuteMWKxfTxwwJF+zUYIfGsEyrV1KkZ46lAv+IxrGd+8Sw4gJOCp06kw9w8tuWLail6o8vbJ5S/o/4nYr4goFeMWxQjeTIZ3M9zCpO0u4Bz6Sd3JBy2xZr22evYvsuJ1vJzrrW/7ESxq9YNjTwksPLkwBnblh2zBJCSuDxk83vWNIXBHTa1FIU6XleQVYwr/Ic7JRqcYS3O+tXbjiWwh8zjaTei0ZOspkM6XEyHHxyIwybZoKsKpdd1Fw7jYLyaQoC+rv7YvdDb0oZ07esWjFdHpAFQzfnZkWdtLd99vO7DSN5vxRSwAtoe7inGHuDLO0BiSGt7dLlM0ak4vLgKAjoqqp829ahy0m6yHCbnFRh6vV4bN34Y2d96x8ZzSn+2dyw7ie2YXVJkiTICrZ5VTxk42F+zy1hhmrYwg9OcfYZ7Kjp82qqF8/4tSyKw2w+j/YA5zMJljnhLotmPCnPzmdhYsnorZoavN9O2km0MS8Ry5ILPzRNQpSkvOLC88pLXbF1e6EaDnbbWPkx8eYS7suVpm+CjBmLZf214/bWL+SlIJ8ypvlt0YDWkKFW2CBGyANoT48SHrbtxDuGhS7/lGGTt+LkTadf3HzdlVpInc30N5dsDjS3US0HJcBc+hfCjSvcCXzeqvrpYZwX0NnSXXOazCi2qhngHupkpVQMPOTHnCYSF3756YEkZ0m8CuSMO+7AvKiXI8NLJki2MCa9V0UjJcrGAWfFxHIcy++knrz7ve+uOXDUkmOeX3UgNgsjwzzLsj8riWIYoyATmBRLakN4/H6eJwbtiONgG1kQA4zGhdCCtkM4jSiU1CnFKjkCm5avGmbucQRjqSY8ixfZs1zhOWopjzkyL6BbknSVjJKn5+UoOlMpbNcD00PuF961Pilt+kelrfwk9rIiqf9Cy3VFBia+BHzKSWiLkm+30hs/vFnSZ+g0ACjccjAGogoryMpIfmotSRjC+CAt+GpSqSrYh5NLkSzVlr6sT9iZF/UixuVleEEQSRXV0+GpZiA/VUxwzg5+NvH5fkuPzlDZMv1FVQ0wwBnaSEtA84el9SBJNQDVivJw/3nsPcDJ56f3/NQ4rnFt6oVWTF+9qaF1oxdxyqy8gN51x+96jETy53IYPdozbqW8ClEFAQq6cwn2u5/nNNn2uCU1Q9SQerGddHcl2fQSaYkXB4nbPC3R0GYaST2LI/A9QJmfp6VwMp6fNRh5gQhrUEmMhAPBW4jkVJu8gE6FxLbsA5ZhfsykE/6UZKKSrkTChrqQA+qYin72O0pEdbBoOe5pASa19ONJuSeuLq80LDwfzIi8fFjmqXQsPRd1lsyjI7fLXpA0vMYTnZWv3rpiPyM5xT95A53KiYNXd9Bym0kfCTk9XMKIAMZOWlC30j2uL/PXMZIHHVmIU3oy3GYeT1C9KFeqMySaUTEguaQzHkTjpXV7gkfnZsHKZ1uOYb+56xYv5pRbeQW9Y86qZ3Xd2IElPuqZrizr0qgK7+44h/Lliuap87Nr90bDmiOJWGI7pefgMhoPXBdMly/k1W1Q3pMIWAKSHl9Ds55BTIiObDK8IcjGg3I9kM+jGXkFneojaWot7ZH7K866uKcmyG3HTUHRAj8+/8EZgyhNhikbNkl3jE1yEBMtAoT+6OQiiOjgI00ByU0IsjgKc0OYbnfDMzi6HtClykRuxgQ9T3SOfLTbejhHilMWRPOovJrdq945MGLa6HJZknO+lWHS7pYgKGn6/+5t27bZX6C9L2w29rS9v7zkijMjAPg0OSSX4mRpXJDFhKPgkZ0EGtVzCykbM+wE6Nw40EJLU2dwR3aSaDKs5bgTTQVd7hjWTe99r3WLG5qfXy/3/DDnXMcvmj4yWKruIIlmBoLFKsxsKgJJHayAJIQs6cxXsf/N6LJ/GgWpvGzKkN5klKhTZjBch1O+TAfF2WWKERLLNmBqUomBBnnzvkDCnmaFU1/vvHnbCxciSTowk90p8RUEdCppVUvtIkh7Pc0q+jN4LyoYlvXrzttX3dIfzYmEX7R8xmTBFF50T1znzl/ECxRb129pv73t1yeSx/GkybtO54URexM/sBXxEJMxf1N7XZ3UjG3aNJOZWf6LLwzl6U6Fja3lJ5js8nyzbczpLd14pRCAU30KBnr7PS8ddpLWQimMYYSEjetVr3vzbi45YjgYOG3DqQCbeFQ21z6gaOo5aX3m48yEHmIgi9jhlAp2irdgoFNVO+pX/cRIGB+xanNdSvqVGsBrBPaCOKCWA6wrffCckLN62czBeB03332JQiy8fFijuyxJpVm2tb5j38qtJ5TJCSQqKOhUPuw+3i0FMP3Du0oGNAefbAIeFl6n4d2leNLvKW0j+jzeiZYypuDPtQrDiUk5myIKn+w/fJvQyA5tnwCEx5+k4KDjzOAztmlud5cmLhBe/V1QmNRjv1VVJ1Uvnn7CJwMqF9fM0ELBr2AK6DYm+FI+DHivV7m7kvbDH/xww9+OH7oTT5HR+CfO5vhSXvLE9RMc0+lyMHCSauH6PJML6Vp8yQVDYNFDEsJWnoCO2xRCg7MLqPtLYZKoSNh3xxAJH+9NcFNv4mH4/khQ48nP/aV+9QcUVSgzIKBT5XDGcLUsylP7TCFJDXhSyVaMtFvIsUQ6Vwuh2HDQsQ2KY/vzHux494f0WOQwoNMJqaLkYwxgkS43bXtux5yVzRRcSFNw9cIrFzTkuRIWQwwEBhBiYKcAh5cNsLRb6EZxvNhpLBdASgIXPTT/p4UPRfAwcpOBPyXtpFrwYLn/YcfeqsUuQWF/874N0F91dq1559DwKedasih9hYFLQBEgPsN8CGM2j4dN9LTvwgyl8eIYHwqkMP4wL+jJ78q6oARVQY/rD+xZsPw1Ii+0GTBJp4qah50WWxGSJIUcFIKGHjIpQSUPAy1tM5XCgKVI1xB9CnhqCK9hKNyVdGpAUTCT+p6uuW0LvWQFtwYU9C3/0XYIO9cLJSzBXTXhAu26PdCoQQgWDiLsjHi+rcDoCF6P1nWl03rhjoT3So7wr170gFhcqAYkcy9Tsfqxa98UDaGaQU64eRLsDpLwE+AUxuLgB9D+l9Ak3a4kgwx/DHqqWSodC2Fp8Mn7jvY5q85F7ICZvJwGOM7aOGbC/IlcKv8IwNuQROyXu4NnpkQgDP2S9tIdeo/vSTjR0D0A9G6TNrTYnQAZPNK8sA2sCb36N4+zfEXyIgJFBIoIFBEoIlBEoIhAEYEiAkUE/r8hUP2zmYMvbZpadrz1Hv/Q1SUXNF952vGmOxn6MY/Wjq5cMv2n4JG5hjoZpkdJO7Tp0jKq51FI+o0a9eTU02c2ztQ4ASswnawKD7afVCX1axSBVd3vIwc+nvXOvRs/4YT92Rc2T7u0VNH+JGhyCCdwn9Cj9nfp1G42ffWSGQtxAGg6zjemQKIlOxl3kY5f/MPyHu+JpY8S8Z6bNzes/zCbD/lx2drl+AyxDe8pynRdX9k5p/VaTje+Zdo8TdNmY8WqGfFk3Vvz167jcf3Z9HHxzp7EHY4j3YYi4UWiuHXHof3fPLDgtV5Kc1FLzSx89/gYSpvAHjwdEbm9P17+8PFNU6erQfWn+HK5HGc2t+3Yu6f6YOMbR9iGV7jEqgkEAl+jNzn04IuUa8NDRrzsZ9Cfu0TWHkBcyMFBIjkgzUqKMfeGC1+CCx655nO4rewuLPPPky1pNH8kSxxNj0yPSeHwG+Io3FoxUQkM7veTmIgZHStpchkdPsXnhzN8WQmqIv9S0O0xoumcGxgUXnslLvTxx+dyv/Nhz+WSqD6ED0jPQ96jJFm+7pxBQ1YQbQXKLpUEHxcsbEJYQlhT1TmVLbVLcvHxh5U3TblE0wK/k3Sh3MF9CBCSUaOGn8FemLi7jKL4TRtfrLJNIzSnY+EdpSiPx9udp/2McrnxWcn5Nu384c/GizVZtvvciRUKaz/F8Qs3OWhlDR/MagoaCQ/ZzI3TvfiAlvEBjaLIXy1/ZPKXcuXpD3Msj68XSGUnQ794X+dEZafv+UhG4f5ULZ5xc2hQ6cuWjq+l6WU5jBk3BC0QqKheNj1sOIeP0Mabu9+GOuKdq6qp36lsqXnO5dD3d2zT5KvDwfCfsYck4b0h3myBAWzLcXYSNcsFwak+nzrXjYoHSoPfGLdo2r/1ZZsOQRul0rKC2fQSLW3YNYCCdD3rReCJzOPxWPyeeCJ2TzwevSsei92TiMcWJOLRBYaeXAqVwfbEqZGCwdDzArp+mlumixqIqygeQ2CTcXcekZ2FftuPGfXgpLMlWcTHvBaUmrtTyfbjSfBIy8J03/n6wURv/FcijnyTIcHENYOCqmo3VCyu7fOqb2zz1ZNDgZLVeCGuMlrQUxlNw9jXXrfyR8QjtcvISobM/JUwjiSFYCDwm8qmmn2dDW0vUYJchhWYyRakJIsA0tuJtzwBEhXajk0a+mObG9Y8mEWW8lYtqaV+cCsVGMcnhlfuj83vFISHUwSeg/KkP7armB1JflbZXBFuWCUGN8UOvg8Ag2Dj9nKP3I8BBb31asm3Kq+Ij1NlpTollFDDmqrVQdUMw00bN4HMOR89M6SVtgHwtKBQY6LaPdGeizz2mSe8eGaoSJIf5sfbWwnq4LlzHvzSmTxRHxstxiQEEalWhHv8o9dcCYk4i7o8gUjnzK147Gd90vsCcCnCAyKORbP80UhKQFtIY4KPBId01SB9E0Qvl5VA+hMbouHloEbuV8RBZ8elpdDhQSIiYQAvfG2X0UnTWa5YYXXu+9sXdct4iWjJUH1sqCRVVb9etbjm6QmPTvlGWbjkz45hokBuzoxWEg5EEocv2H7Xhl2coavEuA+2HFJxiDNxZzwZe5xucyODPeyyM4ae/gbz5Pihbs6NX9IB2PdJB1JlMDjhOIV1X/f31u/htLnsrjvW7jRi8Ym42Wi1ntTbTMtcE9bkKj+tKAef6z3S+2IsGW8zEvrP/XHczRqZe7LsqsXTV4WCwRtIaqnxbNt6b9vu3UPpSEa/prFb79ofnarbxla6xIEM1Yvqh9uDbg6UlDzN7wtjjUcNKAoHew4frnznjvU7WQLvxy+YbheDJsNL9fDWeWtvu3jZdRMh/aMJUtEWz8bgsQbfEk2DN42yjxvvKRR0wcNXfVULqFdYdDwa1JZkf3xQPXJUKeesOutXb4Cbnpxma93vSWqm5IykHpU6gtGXorxp8i2yLNWYCYz3KBdJY+TwoYvUz8dtrhszRyUfj8b1ZtezMysqDkT/qMnaRPrEkgCmb6cwswE7ypuBjUQOhgK9etuCvtPeDNCJPY20EvvmUhB27n6/6uwRIz/A/GKobbLB4xosSO7rnLOKDQi8OCxjSA3pV1TCoXl/2WC5xcJdXVQBGRIU643818756xM8zZhHJ49WROVMugcG54l4cIZteigoGO0Ckvj3jrp124hg0p8mKXu7pPG4KjquSKL59rw/vM8TkjSQlJNhlvuZGPNXLar9ujYo+JQVcydY9BFANBm5/F3Mx8tbJpUKoXRaliDXDz6n72osv7py+Mh1KNckajgyPE9yA4MPDkYOfdmvUiicmz6gA6OU2d/YHfnnJedehfnj62iLAHWlQFD74dhFUz7eOnfdUk7IM6S06LKiNshSRFyki1sPEYBAtP4QOfg7Tj/251PPDZcG34PS4UGuDTo6WsHqAWbuVA1UaLSe/Qfp+m2mSvZvVmcPHTG02QR4FuUBUpeB+8uEwAOeh5+3sHoYxonFHHDM8wU9adzbPfcP6WMYHoCMWVZ6zofZUDV209kLHE3+K8qIIrsSznBAHSzHfgOAf5iRxufJqrUbAx2XItk0Z2WnGUvcqAwOsDDqlmEttOj8RZkDq1+vb7m97VAsGr9LCbsrX5pixUTrGeoIxMQJWjdRF7AwH8b9WrB1147Bxjej9N0o3TJEbpozJ47E/9497w8p3Y0Yy8KUkm7YMDGY9WuQG9YfIm1tDB58znsAaCgBQ9+36snkQ131rbSNkDagZw2GEKYm0jEZrnGPXH2dFgz9FegywHkkS0P8RenGykXTnuHh2XZO0LOJOuevXZk4FPlPPoBAmpVSbej2McumfBbCgXk6/kiX+cyWuaufwge8b1MQ+7xc0y4rf/Cqc8hvmOZTOJ+8A99rHpFUqVfSFLqdDrbcixkOvtdHE+Ihw45nmGaf+bDbhUjEM/Nlibwf6jWWI0tJRf4tVpqfoYGTbjbCAN2BsYl6Th/D8+V2NkH5o1OuCIbDL+BuSZYxqzf1UF/96eMGNRj4ekVzzSPZ6cmfE3Su0/0JMLj90DLNbgKeFd6SgiEx8DRWrriQLLfBVPH71I0ZMJat4Rq+VUT53p0vfwS1MC5q9JwVNdQzo4ZyZtR07VgyWYFPHHGWCHXCIJfU9c6O+tUP5c4hS6+AyN8EFqRcEM1XVFGuJRCJJ3rJ4eTu7V+Au79is6z8IPK8xzVNnhgOl6xlq15kxGhgk+DpprmVr2gpnHphIKDNx42rv+HpuZ0BOs+I6WJO4bPb96+qAFhbSFqoEootXYVzJGPoID+XDP8g0VHf+oJu6BtplUkNBQkZX9l8DTvoQ1cAdtetj3TXrch4APi/W4bldluU3baNb/mKwJzehI3VNhs58nOAaVaBOuFaQpcDFuUHsbdzRTd0cjZPv5+EhNeHh4/75eSZwUDJekc3NepBLuCEvLAvYURHdm1ordBtfT2tRVj+SGgBeCygbq5aVNPC+ZCdwogEi/ZQmMEMKKdpFEx5kXmrE9DepEUyAZlduGwN2xs1pg8dpOwlfjR9lFXtLjj/W2hszGhwih9R8nxIleTvQyewSmFsef/84WVvZXzjSITsthDC3D+SsAgm6QQI1YRsUm1wCNCHQm+k59ruhpewwD2KobSoFwPVI6NFXiAcepYuRGa8GU4Mq0iPfrh62zx3WthVHp1cOWJQB1au42xvT4jt1YQDt+NiCbOzbtU8YpmqOMebAiG9ZOU0G+eu3pTU49VySKP/AITRUEF4IZV0O7K47Xe/uM+W7FZMDV2ILPGi6qXXbqka3tFZNQLP8HbXHtHe8U+DRu7i9+Jijoh5iTlrRc4bj9xis3wZvL6ioizc8CbBDNiJ90Zndde99Gce15+dTp2mkGWlDStzkmpm2EoTd8joZnz8Nv/2M+bxndLH1bqlv0SLQZcYDY/LnHGxREM1tsEpjJWeQUaFpVbGrAKfHqYaw02Z+bu5fl1HPB65HwMgQ52knUk8dDBm633S7jt0cHb6tjpIkeWMhaYfLzvieCz4x+MuXDzSBEj4Z7iE4vP25V1z1qSnc74iOI6JXTFPjXg7g77otBPM6Etry3aee6t+zZPpiL6uvZHdIqlBt4sACozBWvSAc8nS6ydo4UCApD9lRGF3j3F4zOa5L/4tFcYds9uNrv07awxL30TjH40crPHZ7FlksyUGUG9S+DakJiFj2Y8vkjHlUfq8hOA8ub25bu19uJXoJhVTSbY1i+PHmBpuHmwN6dN9dy147WPHse5Fa9OtF+xBg7n7K2Rji5c9fJu3RBXMRCLnyE/5l6ihfXSsjiQOjf0XXiayDdtsphkP7cuQjSnlb9vnrJzpp8nlPvC9dyNWVF9JPUzBlDKZTKx//c7X4xv3vLDFiOu7SA5Zb4UAm7o2IUPCsxlizOg8PXwZyvI6bWOTMJNMR+PGLCL1Ogw+/WuqnWDI5rkYmbd3N6x7K5tPf/7KpbUTTEMfiSWMnYxpf3p3wUr2tiWbftJTtwR7Insug0by+h2noDUBD4Ib3RIbzeaWhjWvcIpcdsWyqdcFxOA1ESPZ2F23OmM/h8okidJ5xpHEK7iee1+u9P2FVS2dcYNtmTtwhVRXigbte+mTNzyELelDMSfy2LaGV/en4o7igECI41qmXFVaWnajEYk93l6/ut/9q6OwKUYVESgiUESgiEARgSICRQSKCBQRKCJQRKCIQBGBU4TA/wGedE1NjKBBxAAAAABJRU5ErkJggg==;" vertex="1" parent="1">
          <mxGeometry x="640" y="176" width="93" height="93" as="geometry" />
        </mxCell>
        <mxCell id="r435q-MBwhVWBDjpszqn-5" value="" style="fontColor=#0066CC;verticalAlign=top;verticalLabelPosition=bottom;labelPosition=center;align=center;html=1;outlineConnect=0;fillColor=#CCCCCC;strokeColor=#6881B3;gradientColor=none;gradientDirection=north;strokeWidth=2;shape=mxgraph.networks.server;" vertex="1" parent="1">
          <mxGeometry x="980" y="176" width="90" height="100" as="geometry" />
        </mxCell>
        <mxCell id="r435q-MBwhVWBDjpszqn-6" value="" style="html=1;shadow=0;dashed=0;align=center;verticalAlign=middle;shape=mxgraph.arrows2.arrow;dy=0.6;dx=40;flipH=1;notch=0;" vertex="1" parent="1">
          <mxGeometry x="750" y="190" width="200" height="70" as="geometry" />
        </mxCell>
        <mxCell id="r435q-MBwhVWBDjpszqn-7" value="proxy.carizon.work:8080" style="rounded=1;whiteSpace=wrap;html=1;" vertex="1" parent="1">
          <mxGeometry x="800" y="176" width="150" height="29" as="geometry" />
        </mxCell>
        <mxCell id="r435q-MBwhVWBDjpszqn-8" value="" style="html=1;shadow=0;dashed=0;align=center;verticalAlign=middle;shape=mxgraph.arrows2.arrow;dy=0.6;dx=40;flipH=1;notch=0;" vertex="1" parent="1">
          <mxGeometry x="434" y="190" width="200" height="70" as="geometry" />
        </mxCell>
        <mxCell id="r435q-MBwhVWBDjpszqn-9" value="10.11.149.11/12:3128" style="rounded=1;whiteSpace=wrap;html=1;" vertex="1" parent="1">
          <mxGeometry x="484" y="176" width="150" height="29" as="geometry" />
        </mxCell>
        <mxCell id="r435q-MBwhVWBDjpszqn-10" value="" style="html=1;shadow=0;dashed=0;align=center;verticalAlign=middle;shape=mxgraph.arrows2.arrow;dy=0.6;dx=40;flipH=1;notch=0;" vertex="1" parent="1">
          <mxGeometry x="170" y="187.5" width="120" height="70" as="geometry" />
        </mxCell>
        <mxCell id="r435q-MBwhVWBDjpszqn-11" value="Internet" style="rounded=1;whiteSpace=wrap;html=1;" vertex="1" parent="1">
          <mxGeometry x="60" y="269" width="70" height="29" as="geometry" />
        </mxCell>
        <mxCell id="r435q-MBwhVWBDjpszqn-12" value="" style="html=1;shadow=0;dashed=0;align=center;verticalAlign=middle;shape=mxgraph.arrows2.arrow;dy=0.6;dx=40;direction=north;notch=0;" vertex="1" parent="1">
          <mxGeometry x="327" y="81.5" width="70" height="100" as="geometry" />
        </mxCell>
        <mxCell id="r435q-MBwhVWBDjpszqn-13" value="" style="shape=image;verticalLabelPosition=bottom;labelBackgroundColor=default;verticalAlign=top;aspect=fixed;imageAspect=0;image=data:image/png,iVBORw0KGgoAAAANSUhEUgAAAIoAAAAmCAYAAAAbWQPxAAAAAXNSR0IArs4c6QAAAIRlWElmTU0AKgAAAAgABQESAAMAAAABAAEAAAEaAAUAAAABAAAASgEbAAUAAAABAAAAUgEoAAMAAAABAAIAAIdpAAQAAAABAAAAWgAAAAAAAABIAAAAAQAAAEgAAAABAAOgAQADAAAAAQABAACgAgAEAAAAAQAAAIqgAwAEAAAAAQAAACYAAAAAdv/cGwAAAAlwSFlzAAALEwAACxMBAJqcGAAAEp1JREFUeAHtmw2UVdV1x++9782bYWYYPoRC8IMZBtGKWgMBQdSFAWqgQVdqWa7ULqRlpYmmWU2yAENj7CTLD4hN08RkGWtio4k2ET8joGBFoiAQlAZbCBC+v5SvwMB8va/7+vvfuffNvffd9wYG0WnWnLXOO+fss/c+e++zzz7nnnufaXTjVFdX93XEuzeXyzlSmqZ5IpvNTti7d+/mbix2p6JddNFFl8VisdXo1ddDRrfltB+zbXs5+h334N2ltLqLID1yGFoNJo5idkdb9DhK95mVGFEla1lWe/jsPnI5kvQ4SveZkAxbT6wnonRtQrS6DpG75SrrmkqFVEQSAydJkFPxeNwuxPjoId09opgYr1sa7hxMXQqHSWQymW45J91SKG8SCMMy3sdoewc8yevVPbT/j6V0yNuexWCg57Xk1/fv3/+H7qhQXtgPS7ja2tqKgQMHVg8fPrz8NMb8o95yQvrHU6lUJgTrUnPO0rGfnPfihEu6RFyEKF4E7oCHDRvWB+F1wGo7ePBgSwnc+BVXXNH7+PHj+dWeSCSyO3fubHRpLBzkS6yYGaye8ysrK+PpdDrJPcn7tJ8ZM2bMQ4sWLcpG8M/zi+hzQIMHDx7InYQN71yfPn2aBNy0aVOqGL7gI0eOTLS1tfUlO2NWVVVBbia3bt16yk8n/TkzlDU3NzsOW1FRESOf8PO/4IILeqHraPSohVYLrxVeG9F9m59XZ3XobclRAk+8T2sbTpTFv2lV5K68a8m4LTB8tNk8+rOHpm1PluDdaVfYUWIXXnjhKAx/J5TTcZDzysrKdNAymOhDGOBd8i9ov7Zr1659nuDQXNXU1LQa3IQ3IjjLqH8KZxhL/Ske++rFRwkeTslPPfAJ69ev/wZ4s+D5ktehErySyjHuEMY8gJwOGRPaSqWVaDVk+/bihmlpabmJcRdJNyXOBQYXea9RnewA3B/4rsWhL/XwBG5tbf0rimfr6+svpH8uOn0BOdsZuXTSE31WY8c5yLHWBXdWmNgwEgfbD6bjdcY5Be/7cMzV27ZtOwYsMuLaWduws2aNFTfHJipjY3NNA38wf9mfPJHKpH/eu7Jqc8MNK49GDlQCGNh6EOjHrKBVCDQLmvNE55vcQTSn0P4J5fYRI0bUUjoJfMC5tHC9TEfb0KFDv0j5Bv31QqQ0mKC8owhXkwy8P90vgv9t4fmSF5F8oI6qIklHy6n14rcfkSUMD6EVNpGhIOxHwZC3CTvdTLkeLl8il+Fkjh7SRVl6kSYAf9O1gdolk2xDLpj4GTNmxCB8jr5LKcdQvgDfd4h2nyzO0HTmNZvJGa0nHbXKOdl9Lh6LrUxlU2/ftXTcM/OXT7gJN8uv2OK82nvyEQWF/p1JnCVFfUkNXSfrGT+BkJqICvIrePROSidJQbLtGsiBUb8Rfje7sGOUcrAVwKoZ42bKW4BVCtnFMZn4ucixZc+ePY85TPAtt4wsoJOHBvqQI93Y2BhYAAEEGowvefNgl0eQUXtvACY86GbQdRt12UF82ijTZI3ZC7gm1tMpjp4L0GkFOv1O8GIJOltbm79/9OjRZUTbdfD4uDcvkhtH2bx7925FwMhkxczjoKVyds6J8JRGlkwyM7Y9NF5mDY2XG7fc9fK4o9Yy40eZuPXTTK/cwe9es0YROTI5BmWfHcskfc4TRpiuIb+KkPWE5joizSX0TwL+CErNjeDWYfn2zgrxIL9K83IUu4u8jL37WYw2E16T6QucCTQ+sG/xLqSfyz8wUeEx2RIyGsOfkC2OPlk/LKoepovCCcMkH2k2tHKSDZR/z3g3YKPRTN7V9N8O/D0h+VI1/bN97cgqvGLJZDIQ1Y4dO/ZL4AEngfgl7Dg9kokLPJXO/nUmnZ1kxoyGWJm5IZ6wjPKqmIEDOStPkSbVYhtW3BpAvjuWzm2paDHfJNIsnLdkwieieDsRBSeZjML5foTTitiCQN/LA9meqR8hv+WD+asdDFwoxmuqrq7+tP/w5xHgLGvq6ur+hvaLHkwlY5+PYW+m+lM1yeGUH4fDaJO2H2j8EaSNc4HODAGjFzDx6ev25fmGcf1t2Yn8NLa51Q9365uJHseR/1fg+CPLNPrn+PCjxkqzGPNnPGzzDPif0Xheor7DdcaSuj00bd1JaFa5+Zt3L7u+LtmW+qJpmzPj5daAbMo2bS2lLJFGsdAw4tRHx+LW6FiZMW/e0nE7eJ/wYPmpk082zNjUzCzkHANj6DKEOAiBI5WEA1bLyrzYYdPxo4nzcgc0urYZg/2IA6bOH4GQ6qFzKNMB7V2v7ZY6aM2sJdE3INTnLGkXxpYbG0f9BLldXcNohuZ5+E4K0eWbsB0MnSZbN77+FB5LfR2z1I55Av6L0OsJP2GoXg5vHcq9p8RGaDJM/NgQnl8XyaO3ydNwtFGcP/4N3KtpOzjQi3QbC+/6rrxZvvfGN3aZ6fj3rZhxfTZlXG2b1kwzZj5mWubx8sqYEYs7/I1sxjZSrVkjFjPrs7nc/GTf3uvmvzr+v+YtHr/Ic5T3ECbvKK5CFYT2tQg9wm1rsmU4L7vg6AJ+h+nZiFEViSK3Aj2OskJ+4xrCYYRxamgPwSjV1PNnqIhRcvDW1tOuZTuC6gl4eo5TQKYI5AL9UUgL43TudUS7Drm2FzB2AfBpIfvHj4NfCcwbtxhpDR26XLwD+fXQoLon43voOmXfvn2aoy6lhdNX7Sv/8zXbmnN93rVTGT2wPGmZxrfSydwczi+7Ktia5DSyprYmZnlozjZH2EQajqDjnYlAqK2M/g7El1KvliSUKhQN1rMKP4+B3yY0HgrfNQgpKkF/EOV2sz34jVaACt8N7lheX4JKJWP1x2AysAcPlzrIxsj+g6mETjFu4HHVT4gD0u3Yv7OJ85M5dWSRLr8nK4pFJo2NSLrHcQxIaUGXYNyiMokROFoYTIo5laZwJaS21RbscBtb9V7aZ5NyDWwhhvGyrhx2uXmFy/A7c5dcc5VlZj8TS8QmG3bu8nTaOfNXQdEHnD6OxdhvVyPQUwi6xyXMF8C0wn+Oovdz+TYs39FJRQqC/36/fv1K7qfwfT+ClRxATlIqoohMThLwJOhi8IyMYCIA3ZvAAJ36TiPJOZPKxXA1tmTw90tEcknHhGYkNDqkKrJ5nxzoSfI6nOR1P79zUX/wL9767cJp6/75vklvXWunYrVsS29gID09OclxFGpaZltQ5g7yO+6Ky8sjxYGPB7CAiyadH3TqDxgjj9xRSZWXlyd55PMmpqOnkxpj5Yg0JnJ48hWjKHg8BtGGtjM68TtjuURDpNNSK+pk7thhp9BYRWkkDOkUeh8hO06OzaVDnPYUp/dD+Pna8+Nq5y8fP8csszcZOfvjbCq9vbO0t2JzO3bs0JniME5wLUL+IwIuoMyLR/0CGv0oy5i/Jg5da/B0HQjDRnFowLN4rI6z9ZQ0EONob/YnSHM2CzPJOKW2LUUThWbd8XQI6ufUPerSH/9xnFf1SFnR4whqbCdfCY7ul2RrCuPbXBec4BD7qBofSOJZ5SuLxldU9jL63zd9zYF5iyfcEItn55txaxzS9eZc0i6lRcQ2jMZc1mguWHlsQ23khQh0I8ITegLzXMVqmkDf91FiGFflRfdd6CqZ6BqeegrG8CsL3sX+NnxzjJEFrreouswqlhTik+AJx7/VWDhZpPOGGAUUC/UVazo06BU52SJyx/brbCGnzi1WQwOnhCKJ/gN0vYk+Syi1AAG133TjZPf7HiqKcOgc3NBgWA2vT4w3rJxYnugVG5iJG5fPf2X8xooacwW+MyXTZvfOpHT976iXIqi3cPdygMuHNX6FAiPx3mU5Zwx5t07I6vOMow9syjHWdUQL74koQOs2+kNX778bCCNNnDhRTwSfkEG8BE0jvA9gcL3XKHm+oV/ydxDTgD6r5evxC5dEOf/TW7i7s7bjgJ1sPc75wsdI38HqxWq8lKMgt84+h8kPU18NvRaKlwZA/8KQIUMUabqU5CTGn11V09qcurEtmfyhlchyf2V/jw3xyrZTmXbnYJrLq2NGPMGZKmY+zAHps4Zlz7AS9j95W0/k4AcOHNg/aNCgT/G2dx/Cs185j6taIbrOH87jc/4r8jADcOqAXYUzraSUpwUmlLZB5BoAn0vAVdNJtI9iFF1b6zHTu4vwugMl/qBtx/Fit0P1ko/H8JTMGrNoNAwMEmzooKxzStGIhexpxtCTW14u2nry8Ue9INf2lhZNI/z3cg/0AnXdTv+luqjrHdmfcuZ7hXc/NxR5097OJeL36adnxH5bs/8LnKyGcpc/nJnQ+YOjhBl3HoWh4SJOM5RMtWT/M24l7rGMttpcZeJ/H7h21Qk0cSbe5GJNQumQVvA5waFDh5rr6uqeo/t24fiSnKW3rx2o0jcIBcfhTAPZojLcluq6vsMjaIBzEzi1HiHtFG3dPv6auraUohMiGvAUHRR1PDxNTi9oi8qFwUdAdzV4RaMOfcWSopVJpC0aieEffjx29hD00qLMO094APrT0MaRTfh64SgdJpJ1RSFdZa/rePej1ycLyJK/pPN9bfEV/Wyr+raNZQduhXwYog9Jc0eCk8he2raPl5WbA3n1tZ63eY/jLs8tnPqW9wpiHzj5JOG1Qi5GyC9jgL/L9/gqCD4Spv7oUwNsDNvTTB9aoEq/ooUujubjJLMCnTTYcyfR90gIrm1tBxdLvxKcA/Nu5PKjBBpEpLUcvnWhV+Ui9aKcBo/FfiJ/HZn+gf5Jfphbj5rEAAxZBjNhfyh1O4oNX8Oev4Snt00ocvVl3DWU/q00oAv9E5Drb31fuP0C3S4Bfg9wRw5KOcsD2OU3PEiscOUuKO58eszgmt6xb4A8m9c75WnOHUq2LtLgxE0sqpi9Mqncm6lWe/6D09duKGASAsQRRi/vviNBUXAs7X+By9vs5cdYPboEmk3fOAnpJU0e7Qe8tlsGjAqNLp0S4N5ORBoC/pPAdgGroD4Jg8/z09Mnnht4N/RVDw4sasWEx3kZ/MugdcgoFeb/FT36Ul/O+HqCktOOIt9JrvVwvXHOpITWib7FaIieaRxY1wf+ZPJxluAeLKCDCyzD5v4PrnLocC8OMRWZ9U2PR6ttaAkLbezOnTv/Jw/0VWr6xJ9NVMSuSTZz9nDJ9GLQ4WGa23KZ3JKMbT2+cNqqjT6yklVFiVsRRN9OCHEY+YcwbMNJ9Giq8FYVElID/oxo8gR9/tShSTv0VXj+Huf7MvhTAGkVi6dWUuB8wPiAjLcxwGT/C0ToNOnqK5pwuJ9A93kQnBtlIUKn1bwA+D1qoou2A50b1HeC/CiwuQrnZ5Kg0xZQdFsTLyKCDrM6OznjufxzTKr0jnJ8BwX8LGcQf9Q2Vq5cmcHxpuBAO0E6T4iSgaTF9jh944nWhZd/XBvonY1Q9R6njPNHstX+b55n7q7KZFY2TH+n5NlPA4STxUQuZVBN+jFNClkzo+8qtL04Id2Fq09G/nH//v1nhxmF2+CZhOivUN4PXRNZhionl/n4iedJYE8ycZMwZmOYT6hd4DWsuN8xxhz46EPsADrwSrJ00HlKY+3F6DdRrojAlXyBBG0AJhqcLzhIgIK7bj6agi6wENDN4qwXdrAAH3jH+XquwHNxhJPwu53+/LYlOcj6/ODO0PBOk1tIloZp8N3JEV4rPp9qSU9aOHXNqAenrlvaFScR0ziCHKGcVVtbO5RSnxvcQqnHYnmwbj5PItRmyudwqsXg7ySahKMHqMEEjVaHBe7XOSz/B7S3Afs0fM6nlNJbUfQVjPgSDhL5fSl4WoGKQt54Wj1enWp7IqQ/on0b/AfIuv/xupySMY8CU6R8mPPPIXTVF2oydpOLqMhZuDLbYfoG1okE0GgrljxFk/vRlD72KofOkRW6SvTUIvGS4BrPD2vk6TIouIvNYliCzIqCdxClD8L3UT7RfIYItNdjGChtcw8v+p5KJo3nvzt9zUH6CmwWwD/LhoSOFDzMl0kaxTnkJMpoX3Uy7WXgaQLONnlyeGVJfsjyMca+Hjk+S30q4fmyCAJTdzjAJZ+Xo3QVzOuPuTRReIEh9PG2n456YEtxkT19vDIQhQIM2xsm55LJEfAPBdSp0qcjhRyFkPxrVlv+nIDXv0o0mQp90X35dHj34HQPCwT24LMUKRDecBqbbz4/SP5nKV4P+dlY4JxNJBFm9+HDhy9yw/DZyNhD2w0scM4chYiiL9D1ZXkg0nQDnXtE6IIFzpmjcEbhnwG21dlnBl2QuYfkI7DAOXMUIoouy3qiyUcwqediyA/EUXi+1yOkPj3Q3YSTcRS9Asj2bD3nYto+fJ5Rz/dnLAWXQPtxkPtwDr251fW17gROcCmUv008Y6Y9BN3KAv8HzEx+e3NPt2QAAAAASUVORK5CYII=;" vertex="1" parent="1">
          <mxGeometry x="300" y="30" width="138" height="38" as="geometry" />
        </mxCell>
        <mxCell id="r435q-MBwhVWBDjpszqn-14" value="" style="html=1;shadow=0;dashed=0;align=center;verticalAlign=middle;shape=mxgraph.arrows2.arrow;dy=0.6;dx=40;direction=south;notch=0;" vertex="1" parent="1">
          <mxGeometry x="324.5" y="269" width="70" height="100" as="geometry" />
        </mxCell>
        <mxCell id="r435q-MBwhVWBDjpszqn-15" value="" style="shape=image;verticalLabelPosition=bottom;labelBackgroundColor=default;verticalAlign=top;aspect=fixed;imageAspect=0;image=data:image/png,iVBORw0KGgoAAAANSUhEUgAAAEsAAABLCAYAAAA4TnrqAAAAAXNSR0IArs4c6QAAAIRlWElmTU0AKgAAAAgABQESAAMAAAABAAEAAAEaAAUAAAABAAAASgEbAAUAAAABAAAAUgEoAAMAAAABAAIAAIdpAAQAAAABAAAAWgAAAAAAAABIAAAAAQAAAEgAAAABAAOgAQADAAAAAQABAACgAgAEAAAAAQAAAEugAwAEAAAAAQAAAEsAAAAAdzEKuAAAAAlwSFlzAAALEwAACxMBAJqcGAAACktJREFUeAHtXA1wHFUdf2/37vLV3OWuCW21CkiTmIY24HS0LVpqR5BBLDpQisUZYVRwkrTTIhQUClekIx3QYpOLAn4Up9TaOuoMGZSqlKmIdsxYS02bj8rItJUpKbeXUJomd7vP37tmk819vNu7fXvgzO1c5n3//v/327f/99/33oaQ0lVioMRAiYESAyUGSgyUGLDNALVd00nFxw9X1VRWrFIovZ4wtoBRUgvBcUCeYAY5yAj5Vay94YATEcVo6zZZNNjZ30oo3UwpnSnqEGPsFYOSrwy3NrwuqvdelrlHFkZTsLLiFyDp8/Y7yN5k8cS1OvXOUD36Oe18dJDcvXTUfnt3a7pDVni/J3jR3G6Af9aR+oyN4JH9ofZW/CESbh53hCWhsSIBIw0CRG12TBRHpdRPCb0vVOftJnf2eNMEFTlDOlnBHxy9HEZ8o9R+UHpNTYv/fqmYBYBJJ4t4vA/CTnkK0EXYBIreF3ysJyCs5HKhVLIqO/o+QCi52RWdKa2ifv9qV7Btgkolq4wqt8FWqTZl512NMfhp7+EllSyMqhvc7AtuxCfcxM+FLY+s8P5yCFuaS6Cjckpm12w7VOMIw0FjaWQFamfNd8Owp/ZN8fo+mJpXrLQ0slTFe1kxlE5QT2Ux5GSSIY0sRpjw3S+T8ELyPMyQ7pbY1UMaWYRReVgC7TEjFkVOJhWkCWbMeDeTAPl5bEQ+pj1EaWRRgxRlaSUxprxpr2vya0kjy/CM/YsxYshXcQoRi4TaO/c0npnKKW5MGlnDrQs1qH7QTfXhlB5yEz8XtjSy+HshpcRV9wEj6+qabccuydUpt8qlkVWmKldCyYvcUpTjJt87ferH3JQhwpZGlsFohUiQrDIsBhZFTiZ9pZGlksR/MwlwIe//33WIjmmHsEOTcIGcaZBsPHFkWkYRE9JGFt+FgU15yVXdGemJbWj6j6syBODyyIIQzFY7BLIcF2HkbnYM4gBAKlnay//cgxfqww70ydoUDu/PtfaG7qwVilAglSyy9xZdO39miWGwTRhl+Em7XtKGTt4lDa1AIJgZd65g1+ARgF8uA308QZrPrqs/KgPLCYbckWXVhLEXrMlC43j8jr8fiOL6u7aQhiMyO3yEbCyUJLMdyIqYcWEYDiuVM2+drRLsYhu6zuKq9Jdu1x5D3rFg18Dz8LgL3/Fh7GR06FQ9CX/6fCaiarb3t1CV3Iq1/xV4GVqIOnzTZPKC0RymhP0dx5r2UTq2O9q24MRkYQERV8kKdfY2M8V7CIQVdE7BMIzbY+2Nz6b2K9DRt0JR1Ueg/FWpZdnSE8tHexNx/eF31n+0P1s9Ub6rZHHBNZGBTTjE9ohIiUxlGBUvaq3111nLktv3fn8XyF9jzc8nDtdmnBG6JfbWc4+ScDiv9Tf3DPxED2JDu7ag43/Jq0OMjTEjPs1V8Ed655HqQI8TorgOaO9DpzeH6tb8jkR6Z+Sjl+tkJe+ewf6Rj1KoezDWPv8Ns01g++BlHuJ7Betl88w8xyGl1waJbx8J99jeWnOfLN4rSlry7NzfJutvH/QrKvk9MGZN5kmKgPwloTr/TrtwrpMV6uy7BbPVMrsK4WzX2cQoe9ysH1SNiNQRZQKbIaVfxKz9DTMpCt0x8Kv2qIFlC69UFWUl7NW38tnWNxj5Xqyt/h6udE3X4NW4my+LOmCnjDu2GJk/xgvYchA/bdLg7bmLkThnzMu1GSLNKa168sgsn7f8Jvg1N0L+UhxxTBrPfO8GTcR38A7wizLyMDrp7MJIZeP6NRNLO1sxO98OyGesNxDpgKeCroegB0XCnKmSHEFXfEFVaSvuHr9rjh5rYBzR2uq5c0mqn+xr9PrUPpHy9srYXdHWhqetdYORgZ0g6zZrHobX6ejQyblwgLMuYBY2ssK9vmCd507c+7sh9FIuFEQ5vyg5YIKoHmWVGS84ZGxftG06UeT7r1ZgtC5Jw8QEEpg5Z9mwYAEzb7JgDD+Hu9BhkpQm1EEGM4zJfUeFkuUOoJJ26LxOv5qKEfTVboWv9ZHUfJ6GjV2OIOtqr32y4I+Eav2dGEN3OLYj0CjTZRjK4FQ+dbS8g1XV9aPrGk5O4cEwdQ18Bvq3W/OscXj2C6zp1LgtsiaM9wsgydU9O6YkokkF+Zl3B34VXmm6Y20NO6yd5ScGFUZ+BtysBgMFc61tUuNKakZqOtD1WrDMW7YfNslVorhcI5GAyYDL0KRW8VB0YTL4K/5W4g+jfeoCUdGxsQTs6fSL+io7YFiFZMCJEMrNObIUVv4shDRNF+1Oyss8yQ3UmDpjNCQQwT+K0s6NXkfubeHHnJ6v6Rw4rSj0O8kmOll7bsP8aSdtAh0DN8HGflkAmSzCpy8Zl4LMdsKRhS+6roeQPD5UMmELDFUlkGy5rn6MO4rZUCjTN04QlayCz+8exQGeb8P7/7W2tmGXtV1VpHe2opCnrHlZ44yezlqGAiFZhCppw1kE5rSMUTrPxIBze8yMp4aMqJ9MzdNaG78b1dOXbnzUyx1QW0c4KTGyyuTyhGRRyhalKuVmWlXY5GyEkfXnrLIUujUQGUxzCwhGpLVNqLP/a7DnN1jzRHF873hAVC4kCw39osayyzCyVpiYeNR+a8ZTQ8xaFH7YM6FI/9dTy8w0VlMvha3dZqZzhoy9G2OJP4rq5SJL1NaFMrq0uvNY8pGJtjW9itkp6/YXJwxncZ/KuGKAzQtFVfjElHw/tanoL0lb81lR3fcVWSBA9VL1DlNhppMtZjxTyAnDrysYGWy1lgdr13wTj9+nrHmiOD/QgusxUR1eBmHZr1DXAI730OrsNeSXwG96Qzs8XE+eXoTdNELx0nsABjrNoKdKNgyyIXZmvCtY51uFMfdTkOVLrZMtDbKe0Noa7s1WbuYLRxbOnF/wqM3aRQjh/F4caqleNyGK8Y/MQWAsl2i4B9tA1Cja78yLKJzN0IZObcqFz8uFZGHcddsBkV+HPlTTefRijsu/xjeYcTPflcklB0SJ+5MGwE4xI3Fjtn3J1Opi8JHhBzBEX0tt5Hoa30Yrime3+V30cHvjn6iur+RLzrJkg/zXEyy+3LoxkgtbSJZ2/6JhjcSvAmE/gt+j5wKTW04XB68I/ASYSbsaXdv0ImHxxXgke53K4S/aCUP/+Ehb8/F8sIQG3grE9+1U4sVeHl2N4f4ha5mbcX6jtKFdbZMbosmFRy9fAt5o1zO36MeXgB6IttbvteTZjtomy4oY7OpbiA+bsGNDF8OXwTYXa8jHqFqxbMUZ+0308MjqiRnyQhP8k41QRfmXiEJXQw8+W5ZnwsIToWEl8A/M0J+Lvb27e5L0TJVz5BVEVhrmhd2cDyuMzqUKm2MQZTZeleaASL54AMcQziEj1Xjfq0SeB48BVjuoShlTseBmYKpPQBH+qgJXhQzjURuCfTqBjp7AyDo2/PbZoyS86FyaXDNj+2BZ0KM3wi+7hKqqn+g4CkKYphv68RFtz7+dEGSKKIUlBkoMlBgoMVBioMRAiYE8Gfgf5vgIAwwNkKsAAAAASUVORK5CYII=;" vertex="1" parent="1">
          <mxGeometry x="322" y="380" width="75" height="75" as="geometry" />
        </mxCell>
        <mxCell id="r435q-MBwhVWBDjpszqn-16" value="AD认证" style="rounded=1;whiteSpace=wrap;html=1;arcSize=0;" vertex="1" parent="1">
          <mxGeometry x="380" y="380" width="70" height="29" as="geometry" />
        </mxCell>
      </root>
    </mxGraphModel>
  </diagram>
</mxfile>
